<?xml version="1.0" standalone="no"?>
<!DOCTYPE svg PUBLIC "-//W3C//DTD SVG 20010904//EN"
 "http://www.w3.org/TR/2001/REC-SVG-20010904/DTD/svg10.dtd">
<svg version="1.0" xmlns="http://www.w3.org/2000/svg"
 width="500.000000pt" height="500.000000pt" viewBox="0 0 500.000000 500.000000"
 preserveAspectRatio="xMidYMid meet">
<metadata>
Created by potrace 1.14, written by Peter Selinger 2001-2017
</metadata>
<g transform="translate(0.000000,500.000000) scale(0.100000,-0.100000)"
fill="#000000" stroke="none">
<path d="M1012 4990 c2 -6 176 -231 388 -500 l385 -489 1573 -1 1572 0 0 500
0 500 -1961 0 c-1324 0 -1960 -3 -1957 -10z"/>
<path d="M0 3368 l0 -1616 108 -154 c59 -85 172 -249 252 -366 143 -209 145
-211 163 -190 10 11 121 171 247 354 l230 332 0 995 0 995 -491 623 c-270 343
-495 628 -500 634 -5 5 -9 -649 -9 -1607z"/>
<path d="M2582 2983 c8 -10 176 -223 373 -473 197 -250 369 -467 383 -482 l26
-28 783 0 783 0 0 500 0 500 -1182 0 c-1124 0 -1180 -1 -1166 -17z"/>
<path d="M4150 1005 c0 -5 743 -950 766 -975 12 -12 14 60 14 483 l0 497 -390
0 c-214 0 -390 -2 -390 -5z"/>
</g>
</svg>
